<svg width="20" height="20" viewBox="0 0 20 20" fill="none" xmlns="http://www.w3.org/2000/svg">
<mask id="mask0_218_910" style="mask-type:alpha" maskUnits="userSpaceOnUse" x="0" y="0" width="20" height="20">
<rect width="20" height="20" fill="#D9D9D9"/>
</mask>
<g mask="url(#mask0_218_910)">
<path d="M3.33335 16.6663C2.87502 16.6663 2.4828 16.5033 2.15669 16.1772C1.83002 15.8505 1.66669 15.458 1.66669 14.9997V4.99967C1.66669 4.54134 1.83002 4.14912 2.15669 3.82301C2.4828 3.49634 2.87502 3.33301 3.33335 3.33301H16.6667C17.125 3.33301 17.5175 3.49634 17.8442 3.82301C18.1703 4.14912 18.3334 4.54134 18.3334 4.99967V14.9997C18.3334 15.458 18.1703 15.8505 17.8442 16.1772C17.5175 16.5033 17.125 16.6663 16.6667 16.6663H3.33335ZM10 10.6872C10.0695 10.6872 10.1422 10.6766 10.2184 10.6555C10.295 10.635 10.3681 10.6038 10.4375 10.5622L16.3334 6.87467C16.4445 6.80523 16.5278 6.71856 16.5834 6.61467C16.6389 6.51023 16.6667 6.39551 16.6667 6.27051C16.6667 5.99273 16.5486 5.7844 16.3125 5.64551C16.0764 5.50662 15.8334 5.51356 15.5834 5.66634L10 9.16634L4.41669 5.66634C4.16669 5.51356 3.92363 5.50995 3.68752 5.65551C3.45141 5.80162 3.33335 6.00662 3.33335 6.27051C3.33335 6.4094 3.36113 6.53079 3.41669 6.63467C3.47224 6.73912 3.55558 6.81912 3.66669 6.87467L9.56252 10.5622C9.63197 10.6038 9.70502 10.635 9.78169 10.6555C9.8578 10.6766 9.93058 10.6872 10 10.6872Z" fill="#616161"/>
</g>
</svg>
