<svg width="20" height="20" viewBox="0 0 20 20" fill="none" xmlns="http://www.w3.org/2000/svg">
<mask id="mask0_218_918" style="mask-type:alpha" maskUnits="userSpaceOnUse" x="0" y="0" width="20" height="20">
<rect width="20" height="20" fill="#D9D9D9"/>
</mask>
<g mask="url(#mask0_218_918)">
<path d="M4.99998 18.333C4.54165 18.333 4.14942 18.17 3.82331 17.8438C3.49665 17.5172 3.33331 17.1247 3.33331 16.6663V8.33301C3.33331 7.87467 3.49665 7.48217 3.82331 7.15551C4.14942 6.8294 4.54165 6.66634 4.99998 6.66634H5.83331V4.99967C5.83331 3.8469 6.2397 2.86412 7.05248 2.05134C7.8647 1.23912 8.8472 0.833008 9.99998 0.833008C11.1528 0.833008 12.1355 1.23912 12.9483 2.05134C13.7605 2.86412 14.1666 3.8469 14.1666 4.99967V6.66634H15C15.4583 6.66634 15.8508 6.8294 16.1775 7.15551C16.5036 7.48217 16.6666 7.87467 16.6666 8.33301V16.6663C16.6666 17.1247 16.5036 17.5172 16.1775 17.8438C15.8508 18.17 15.4583 18.333 15 18.333H4.99998ZM9.99998 14.1663C10.4583 14.1663 10.8508 14.0033 11.1775 13.6772C11.5036 13.3505 11.6666 12.958 11.6666 12.4997C11.6666 12.0413 11.5036 11.6488 11.1775 11.3222C10.8508 10.9961 10.4583 10.833 9.99998 10.833C9.54165 10.833 9.14942 10.9961 8.82331 11.3222C8.49665 11.6488 8.33331 12.0413 8.33331 12.4997C8.33331 12.958 8.49665 13.3505 8.82331 13.6772C9.14942 14.0033 9.54165 14.1663 9.99998 14.1663ZM7.49998 6.66634H12.5V4.99967C12.5 4.30523 12.2569 3.71495 11.7708 3.22884C11.2847 2.74273 10.6944 2.49967 9.99998 2.49967C9.30554 2.49967 8.71526 2.74273 8.22915 3.22884C7.74304 3.71495 7.49998 4.30523 7.49998 4.99967V6.66634Z" fill="#616161"/>
</g>
</svg>
